<svg id="Layer_1" enable-background="new 0 0 512 512" viewBox="0 0 512 512" xmlns="http://www.w3.org/2000/svg" width="18" height="18" version="1.1" xmlns:xlink="http://www.w3.org/1999/xlink" xmlns:svgjs="http://svgjs.dev/svgjs"><g width="100%" height="100%" transform="matrix(1,0,0,1,0,0)"><path d="m397.41 317.77v85.69c0 8.19-6.69 14.88-14.88 14.88h-22.28c-2.98-54.96-48.5-98.65-104.26-98.65-55.73 0-101.25 43.68-104.23 98.65h-22.28c-8.19 0-14.88-6.69-14.88-14.88v-85.69c0-71.26 53.38-130.62 122.14-140.09l-13.8 98.59c-.25 1.84.43 3.57 1.87 4.73l27.95 22.68c1.9 1.56 4.59 1.56 6.49 0l27.95-22.68c1.45-1.16 2.13-2.89 1.87-4.73l-13.8-98.59c68.76 9.47 122.14 68.82 122.14 140.09zm-141.4-156.9c44.28 0 80.42-36.14 80.42-80.45 0-44.3-36.14-80.42-80.42-80.42-44.31 0-80.45 36.11-80.45 80.42.01 44.31 36.15 80.45 80.45 80.45zm87.88 263.22c0 48.56-39.34 87.9-87.9 87.9-48.53 0-87.87-39.34-87.87-87.9 0-48.53 39.34-87.9 87.87-87.9 48.55 0 87.9 39.38 87.9 87.9zm-37.65 0c0-4.56-3.71-8.25-8.28-8.25h-33.7v-33.73c0-4.56-3.71-8.25-8.25-8.25-4.56 0-8.28 3.69-8.28 8.25v33.73h-33.7c-4.56 0-8.28 3.69-8.28 8.25s3.71 8.25 8.28 8.25h33.7v33.73c0 4.56 3.71 8.25 8.28 8.25 4.54 0 8.25-3.69 8.25-8.25v-33.73h33.7c4.57 0 8.28-3.68 8.28-8.25z" fill="#008fce" fill-opacity="1" data-original-color="#000000ff" stroke="none" stroke-opacity="1"/></g></svg>